<svg xmlns="http://www.w3.org/2000/svg" viewBox="0 0 505.5 498.13"><defs><style>.cls-1{fill:#f0f6fc;}.cls-2{fill:#50cc65;}.cls-3{fill:#cde4f9;}.cls-4{fill:#5fd670;}.cls-5{fill:#f5faff;}.cls-6{fill:#d3edd5;}.cls-7{fill:none;stroke:#000;stroke-miterlimit:10;stroke-width:0.5px;}.cls-8{fill:#176b1f;}.cls-9{fill:#b3d8f4;}.cls-10{fill:#f79200;}.cls-11{fill:#f9c32b;}.cls-12{fill:#9ee8a2;}.cls-13{fill:#0e4915;}.cls-14{fill:#3aaf4b;}.cls-15{fill:#f4f4f4;}.cls-16{fill:#f995a6;}.cls-17{fill:#f77c96;}.cls-18{fill:#43ba54;}.cls-19{fill:#593e01;}</style></defs><title>Asset 1</title><g id="Layer_2" data-name="Layer 2"><g id="Object"><path class="cls-1" d="M426.53,340c-8.68-2.17-13.69-19.37-16.74-32.37-4.31-18.4-7.81-43.14-11.52-69.33C389.89,179,380.39,111.82,358.33,94.9c-17.39-13.33-40.68,39.93-63.19,91.44-11.89,27.19-24.18,55.3-35.84,74.13-13.6,22-25,28.7-34.79,20.59-19.12-15.8-24.3-61.27-29.78-109.41-6.3-55.32-12.81-112.52-39.92-134.25-12-9.59-22.87-11.66-32.44-6.17C110.72,37.91,103,54.75,98.5,67.69a185,185,0,0,0-7,27l-3.39-1.35c.35-2.15,8.82-52.88,32.77-66.63,10.59-6.07,22.54-3.89,35.5,6.51s22.51,29.07,29.39,57.29c6,24.57,9.24,53.09,12.38,80.67,5.34,46.9,10.38,91.19,28,105.73,18.54,15.33,42.67-39.88,66-93.28,24.39-55.8,47.43-108.5,67.7-93,23.6,18.11,33.29,86.55,41.83,146.93,7,49.65,13.66,96.56,26,97.7,14.87,1.39,25.23-34.87,34.36-66.86,3.91-13.68,7.6-26.6,11.39-35.56,2.92-6.91,7.53-15.7,13.75-12.17,22.36,12.71,18.05,67,17.86,69.26l-3.45-.86c0-.53,4.18-52.68-15.54-63.89-6.75-3.83-13.88,21.13-20.77,45.27-9.55,33.42-20.36,71.29-37.62,69.68A8.48,8.48,0,0,1,426.53,340Z"/><path class="cls-2" d="M247.94,74c-.21,13.33-4.74,24.51-11.71,31.32a27.88,27.88,0,0,1-4.46,3.53l-1.05.63a23.25,23.25,0,0,1-5.38,2.2,20.1,20.1,0,0,1-3,.57h0a22.67,22.67,0,0,1-6.61-.19c-7.61-1.31-14.52-6.22-19.87-13.32-6.93-9.19-11.24-22.07-11-35.62.2-12.75,4.36-23.54,10.83-30.4a24.26,24.26,0,0,1,15.12-7.88,1.84,1.84,0,0,1,.33,0l.69-.05a21.71,21.71,0,0,1,3.77.09q.75.08,1.5.21a23.55,23.55,0,0,1,3.43.85C236.26,31,248.29,51.61,247.94,74Z"/><polygon class="cls-3" points="90.52 85.73 158.38 102.63 158.38 200.44 90.52 182.96 90.52 85.73"/><polygon class="cls-1" points="173.06 118.48 257.39 139.48 257.39 264.48 173.06 238.56 173.06 118.48"/><path class="cls-4" d="M247.94,74c-.21,13.33-4.74,24.51-11.71,31.32a27.88,27.88,0,0,1-4.46,3.53l-1.05.63L195.64,32.76a24.26,24.26,0,0,1,15.12-7.88,1.84,1.84,0,0,1,.33,0l.69-.05a21.71,21.71,0,0,1,3.77.09q.75.08,1.5.21a23.55,23.55,0,0,1,3.43.85C236.26,31,248.29,51.61,247.94,74Z"/><polygon class="cls-5" points="277.71 85.73 362.04 108.31 362.04 317.04 277.71 288.09 277.71 85.73"/><path class="cls-6" d="M224.55,50.73a14.85,14.85,0,0,1-1.65,6.84c-1.53,2.82-4,4.4-6.71,3.93s-5.29-3.07-6.71-6.57a18,18,0,0,1-1.28-7c.11-6.73,3.85-11.55,8.37-10.77S224.65,44,224.55,50.73Z"/><path class="cls-6" d="M235.27,91.4c-5.6,5.46-12.77,8.1-20.53,6.76-7.6-1.31-14.52-6.21-19.87-13.32a58.64,58.64,0,0,1,3.73-15.13,17.66,17.66,0,0,1,10-9.93c1.66,4.1,4.54,7.12,7.86,7.69s6.06-1.3,7.85-4.6A27.28,27.28,0,0,1,232.6,75,60.13,60.13,0,0,1,235.27,91.4Z"/><path class="cls-7" d="M220.25,24.17h0l-.34,0Z"/><path class="cls-7" d="M211.09,24.85l-.33,0h0Z"/><path class="cls-8" d="M256.08,73.43c-.21,13.32-4.74,24.5-11.71,31.3a23.61,23.61,0,0,1-15.93,7.1h0l-6.08.46a22.65,22.65,0,0,0,9.42-3.4,27.11,27.11,0,0,0,4.47-3.55c7-6.8,11.5-18,11.71-31.3.35-22.43-11.67-43-27.45-48.09a24.2,24.2,0,0,0-3.43-.85c-.51-.09-1-.16-1.51-.21a21.71,21.71,0,0,0-3.77-.09l8.14-.61.34,0a23.13,23.13,0,0,1,4.94.32C242.63,27.49,256.46,49.4,256.08,73.43Z"/><polygon class="cls-1" points="277.71 85.73 362.04 317.04 362.04 108.31 277.71 85.73"/><polygon class="cls-2" points="285.52 98.51 285.52 150.56 354.23 171.38 354.23 118.53 285.52 98.51"/><polygon class="cls-3" points="285.52 161.5 285.52 179.05 354.23 199.52 354.23 181.52 285.52 161.5"/><path class="cls-3" d="M354.23,214.13a1.12,1.12,0,0,1-.31,0l-68.71-20.47a1.17,1.17,0,0,1-.77-1.44,1.13,1.13,0,0,1,1.39-.81l68.71,20.47a1.19,1.19,0,0,1,.77,1.45A1.14,1.14,0,0,1,354.23,214.13Z"/><path class="cls-3" d="M341.82,227.45a1.06,1.06,0,0,1-.31,0l-43.88-13.07a1.18,1.18,0,0,1-.77-1.45,1.11,1.11,0,0,1,1.38-.8l43.88,13.07a1.18,1.18,0,0,1,.77,1.45A1.12,1.12,0,0,1,341.82,227.45Z"/><path class="cls-3" d="M354.23,265.2a1.1,1.1,0,0,1-.31,0l-68.71-20.47a1.19,1.19,0,0,1-.77-1.45,1.11,1.11,0,0,1,1.39-.8l68.71,20.47a1.18,1.18,0,0,1,.77,1.44A1.12,1.12,0,0,1,354.23,265.2Z"/><path class="cls-3" d="M341.82,244.48a1.06,1.06,0,0,1-.31,0l-43.88-13.07a1.18,1.18,0,0,1-.77-1.45,1.12,1.12,0,0,1,1.38-.8l43.88,13.07a1.18,1.18,0,0,1,.77,1.45A1.13,1.13,0,0,1,341.82,244.48Z"/><polygon class="cls-9" points="285.52 263.64 285.52 281.2 354.23 304.12 354.23 284.73 285.52 263.64"/><polygon class="cls-5" points="173.06 118.48 257.39 264.48 257.39 139.48 173.06 118.48"/><polygon class="cls-2" points="235.28 147.23 250.07 150.92 250.07 250.84 234.62 246.35 235.28 147.23"/><polygon class="cls-9" points="180.37 134.94 220.37 144.9 220.37 162.18 180.37 151.41 180.37 134.94"/><polygon class="cls-9" points="90.52 85.73 158.38 200.44 158.38 102.63 90.52 85.73"/><path class="cls-1" d="M125.93,179a19.8,19.8,0,0,1-3.33-.29c-6-1-11.87-4.94-16.42-11-5.86-7.79-9.13-18.33-9-28.93.26-16.93,9.32-30.15,21.55-31.43l.29,0,.54,0a18.73,18.73,0,0,1,3.18.07q.61.06,1.26.18a20.75,20.75,0,0,1,2.87.71c13.11,4.22,22.79,21.07,22.51,39.18h0c-.17,10.46-3.68,19.79-9.62,25.6a23.84,23.84,0,0,1-3.72,3,19.2,19.2,0,0,1-5.39,2.36,17.57,17.57,0,0,1-2.52.49h-.08A19.27,19.27,0,0,1,125.93,179Zm-5.19-69.39q-.51,0-1,0l-.53,0-.21,0c-11.09,1.16-19.3,13.42-19.55,29.15-.16,10.07,2.93,20.07,8.48,27.44,4.21,5.58,9.54,9.17,15,10.11a17,17,0,0,0,4.93.14H128a16.15,16.15,0,0,0,2.16-.42,17.22,17.22,0,0,0,4.79-2.1,21.25,21.25,0,0,0,3.35-2.66c5.5-5.38,8.75-14.1,8.91-23.93h0c.26-17.12-8.74-33-20.94-36.92a19.7,19.7,0,0,0-2.57-.64q-.56-.09-1.11-.15A16,16,0,0,0,120.74,109.56Z"/><path class="cls-1" d="M124.9,165.34a12.29,12.29,0,0,1-2.09-.18c-3.78-.65-7.42-3.08-10.25-6.84A29.39,29.39,0,0,1,107,140.45c.17-10.53,5.84-18.76,13.5-19.56l.19,0,.33,0a11.23,11.23,0,0,1,2,.05,7.87,7.87,0,0,1,.79.11,11.83,11.83,0,0,1,1.8.44c8.15,2.63,14.17,13.06,14,24.27h0c-.1,6.48-2.28,12.27-6,15.89a15,15,0,0,1-2.34,1.85,12.13,12.13,0,0,1-3.39,1.49,11.19,11.19,0,0,1-1.59.31A13.52,13.52,0,0,1,124.9,165.34Zm-3.15-42.18-.58,0-.41,0c-6.53.69-11.36,8-11.5,17.28a26.94,26.94,0,0,0,5.06,16.39c2.48,3.3,5.63,5.42,8.85,6a9.65,9.65,0,0,0,7-1.39,11.94,11.94,0,0,0,2-1.56c3.26-3.18,5.18-8.37,5.27-14.22h0c.16-10.21-5.18-19.67-12.41-22a12.33,12.33,0,0,0-1.51-.37c-.21,0-.43-.07-.64-.09A9.73,9.73,0,0,0,121.75,123.16Z"/><path class="cls-10" d="M131.6,144.51a11.68,11.68,0,0,1-3.07,8.21,7.23,7.23,0,0,1-1.17.93,6,6,0,0,1-1.69.74,5.24,5.24,0,0,1-.79.15h0a6,6,0,0,1-1.74,0,8.58,8.58,0,0,1-5.21-3.5,15.31,15.31,0,0,1-2.89-9.34c.08-5.53,3-9.65,6.81-10h.08l.18,0a5.46,5.46,0,0,1,1,0l.4,0a6,6,0,0,1,.9.23C128.54,133.23,131.69,138.63,131.6,144.51Z"/><polygon class="cls-6" points="235.69 60.43 234.86 59.13 265.15 38.02 332.82 52.45 332.52 53.97 265.46 39.68 235.69 60.43"/><polygon class="cls-11" points="344.7 44.13 365.78 49.38 365.78 58.48 344.7 52.8 344.7 44.13"/><path class="cls-3" d="M384.08,74.74l-.19,0L344.51,63.83a.8.8,0,0,1-.54-1,.76.76,0,0,1,.92-.55l39.38,10.89a.79.79,0,0,1,.54,1A.76.76,0,0,1,384.08,74.74Z"/><path class="cls-3" d="M392.78,82.25l-.19,0-48.08-13.3a.79.79,0,0,1-.54-1,.75.75,0,0,1,.92-.55L393,80.72a.78.78,0,0,1,.53,1A.75.75,0,0,1,392.78,82.25Z"/><path class="cls-3" d="M400.93,89.62l-.19,0L344.51,74a.79.79,0,0,1-.54-1,.76.76,0,0,1,.92-.56l56.23,15.55a.8.8,0,0,1,.54,1A.78.78,0,0,1,400.93,89.62Z"/><polygon class="cls-6" points="191.56 77.17 170.69 53.92 111.58 39.61 111.92 38.09 171.47 52.51 192.65 76.11 191.56 77.17"/><polygon class="cls-2" points="81.62 27.28 102.7 32.53 102.7 41.63 81.62 35.95 81.62 27.28"/><path class="cls-3" d="M121,57.89l-.19,0L81.43,47a.78.78,0,0,1-.53-1,.74.74,0,0,1,.91-.55L121.2,56.36a.79.79,0,0,1,.53,1A.75.75,0,0,1,121,57.89Z"/><path class="cls-3" d="M129.7,65.4l-.19,0L81.43,52.08a.77.77,0,0,1-.53-.95.73.73,0,0,1,.91-.55l48.08,13.29a.78.78,0,0,1,.53.95A.75.75,0,0,1,129.7,65.4Z"/><path class="cls-3" d="M137.85,72.77l-.19,0L81.43,57.19a.78.78,0,0,1-.53-.95.74.74,0,0,1,.91-.56l56.24,15.55a.8.8,0,0,1,.53,1A.78.78,0,0,1,137.85,72.77Z"/><polygon class="cls-3" points="58.52 44.35 52.54 44.35 52.54 0 86.41 8.44 85.03 14.5 58.52 7.9 58.52 44.35"/><polygon class="cls-3" points="394.9 363.13 353.02 352.7 354.41 346.63 388.92 355.23 388.92 308.07 394.9 308.07 394.9 363.13"/><path class="cls-3" d="M208.94,174.2a1,1,0,0,1-.29,0l-28.13-7.78a1.17,1.17,0,0,1-.8-1.43,1.12,1.12,0,0,1,1.37-.83l28.13,7.78a1.18,1.18,0,0,1,.8,1.43A1.13,1.13,0,0,1,208.94,174.2Z"/><path class="cls-3" d="M220.37,188.41a1.55,1.55,0,0,1-.29,0l-39.56-10.94a1.18,1.18,0,0,1-.8-1.43,1.11,1.11,0,0,1,1.37-.83l39.57,10.94a1.16,1.16,0,0,1,.79,1.43A1.13,1.13,0,0,1,220.37,188.41Z"/><path class="cls-3" d="M224.33,200.55a1.35,1.35,0,0,1-.28,0l-43.53-12a1.17,1.17,0,0,1-.8-1.43,1.12,1.12,0,0,1,1.37-.83l43.53,12a1.17,1.17,0,0,1,.8,1.43A1.15,1.15,0,0,1,224.33,200.55Z"/><path class="cls-3" d="M220.37,210.5a1.55,1.55,0,0,1-.29,0l-39.56-10.94a1.18,1.18,0,0,1-.8-1.43,1.11,1.11,0,0,1,1.37-.83l39.57,10.94a1.16,1.16,0,0,1,.79,1.43A1.13,1.13,0,0,1,220.37,210.5Z"/><path class="cls-3" d="M208.94,218.38a1,1,0,0,1-.29,0l-28.13-7.78a1.17,1.17,0,0,1-.8-1.43,1.12,1.12,0,0,1,1.37-.83l28.13,7.78a1.18,1.18,0,0,1,.8,1.43A1.13,1.13,0,0,1,208.94,218.38Z"/><polygon class="cls-11" points="180.37 220.64 198.1 225.05 198.1 232.71 180.37 227.93 180.37 220.64"/><polygon class="cls-12" points="285.52 98.51 354.23 171.38 354.23 118.53 285.52 98.51"/><ellipse class="cls-1" cx="131.6" cy="468.65" rx="131.6" ry="28.02"/><polygon class="cls-13" points="285.18 453.46 294.36 498.13 321.89 498.13 329.45 453.46 285.18 453.46"/><path class="cls-11" d="M314,453.46s-5-15.2,3.24-27.22S330.83,413.29,332,406c2-12.71-4.38-16.29-3.56-23.54,1.22-10.75,12.36-6.81,11.34-19.58-.81-10.14,5-28.69-12.46-19.1-15.68,8.6-19.8,33.32-22.23,57.25s1.49,52.46,1.49,52.46Z"/><path class="cls-14" d="M299.1,453.46s4.58-13.83-3-24.75-12.38-11.79-13.42-18.44c-1.8-11.57,4-14.82,3.24-21.42-1.11-9.77-11.24-6.19-10.32-17.8.74-9.22-4.57-26.1,11.34-17.37,14.26,7.82,18,30.3,20.21,52.07s-1.35,47.71-1.35,47.71Z"/><path class="cls-15" d="M309.83,453.74a.27.27,0,0,1-.26-.21,70.73,70.73,0,0,1-1.91-13.95c-.11-6.93,4.49-26.66,10.83-34.4,4.21-5.14,2.86-11.7,1.42-18.63a53,53,0,0,1-1.49-11,25.38,25.38,0,0,1,7.39-17.11.26.26,0,0,1,.38,0,.3.3,0,0,1,0,.4,24.8,24.8,0,0,0-7.2,16.68,52.11,52.11,0,0,0,1.48,10.91c1.46,7.08,2.85,13.76-1.54,19.12-6.26,7.64-10.81,27.16-10.71,34a70.81,70.81,0,0,0,1.9,13.82.28.28,0,0,1-.19.34Z"/><path class="cls-15" d="M302.81,453.74h0a.28.28,0,0,1-.25-.3c0-.25,1.63-25.14-.83-31.79-.53-1.41-1.31-3-2.13-4.71-2.86-5.86-6.41-13.16-4.59-21.91,1.41-6.77-2-11.63-5.05-15.92-1.93-2.72-3.59-5.07-3.59-7.43,0-6.58-6.26-13.92-6.32-14a.29.29,0,0,1,0-.4.27.27,0,0,1,.38,0c.26.31,6.46,7.58,6.46,14.37,0,2.17,1.61,4.46,3.48,7.1,2.94,4.16,6.61,9.35,5.15,16.37-1.78,8.55,1.72,15.75,4.54,21.53.83,1.71,1.62,3.33,2.15,4.77,2.51,6.76.94,31,.87,32A.27.27,0,0,1,302.81,453.74Z"/><path class="cls-11" d="M233.22,426.12s-3.84,8.4.35,10.67,32-11.39,31.53-14.78-22.42-.62-22.42-.62l-9.36-1Z"/><path class="cls-16" d="M219.28,358l-2.61,6.78-2.25,5.85-7.64-3.89-6.21-3.17-3.92-2-1.21-4.23-5.17-18.08s16.28-9.27,22.37-2.14a27.1,27.1,0,0,1,5,10.48c-6.59,2.49-6.29,1.46-9.45.51-2.25-.66-7.1,1.67-9.9,3.2a22.86,22.86,0,0,1,1.19,3.82l8.14-4.47a20.9,20.9,0,0,1,2.78,2.79,41.88,41.88,0,0,1,7.88-3.13c.3,1.47.51,2.83.67,4C219.22,356.56,219.28,358,219.28,358Z"/><path class="cls-16" d="M156.4,179.77c-1.05,5.81-8.08,11-10.16,14.34s-6.47,38.27-9,48c-2.09,8-11.44,24.91-14.76,30.79a43.05,43.05,0,0,0-4.24-5c-1.69-1.59-5-2.36-7.47-2.72L121.42,244s13.47-47.12,15.66-52.21-.91-12.11,1.15-15.66,11.29-3.38,13.89-2.54.33-8.9,1.84-9.16S157.45,174,156.4,179.77Z"/><path class="cls-16" d="M181.07,290.4s12.5-6.13,16.39-12.39,24.81-39.38,24.9-43.48-2.15-11.25.14-15,8.83-9.71,11.75-10.87,4-2,4.14-1-7.27,5.68-7.2,7.1,5.14,4.35,6.3,6.59-2,9.46-4.42,11.43S215,283.09,209.36,289s-16.17,17.66-16.17,17.66-9-3.8-9.17-5.25S181.07,290.4,181.07,290.4Z"/><path class="cls-17" d="M149.18,281.32s-5.3,10.88-5,19.64l.29,8.76-20.08-8.25L119.72,297s1.86-11,3.82-15.43l2-4.42,23.35-6.21Z"/><path class="cls-16" d="M152.6,240.51a53.19,53.19,0,0,1,7.48,15.88c2.54,9.22,1.68,22.09,1.68,22.09s-8.81,6.06-21.53.62-11.93-22.72-11.93-22.72l2.11-11.15,8.4-6.27Z"/><path class="cls-11" d="M149,304.48s8.7-3.26,12.4-5.85,16.6-9.1,16.6-9.1,5.63.63,10.62,6.42a20.24,20.24,0,0,1,4.65,12.95l-27.46,26.26-22-8.93Z"/><path class="cls-11" d="M129.46,281.82l-5.13,16.41-12.66,5.68-12-8.64c.1-.51,8.1-30.42,8.1-30.42s1.27.06,3,.3c2.45.36,5.78,1.13,7.47,2.72a43.05,43.05,0,0,1,4.24,5c1.69,2.25,3,4.24,3,4.24Z"/><path class="cls-16" d="M242.68,421.39s-.9,2.4-8.1,4.68S226,398.9,226,398.9l-10.77-5-12.07-13.64,3.64-13.46L210,355l.42-1.5a41.88,41.88,0,0,1,7.88-3.13,29.5,29.5,0,0,1,6-1.09c6-.39,12.2,1.55,14.61,10.09C244.14,378,242.68,421.39,242.68,421.39Z"/><path class="cls-8" d="M200.64,367.83s-13.26,4-13.57,4.37-13.26,2.8-13.26,2.8l-4.38-2.41-11-6,.86-9.94,11.2-12.15L188,337s.94.83,2.29,2.28a40.91,40.91,0,0,1,8,12,22.86,22.86,0,0,1,1.19,3.82c.1.47.19.94.26,1.43.14,1,.27,1.93.38,2.76.23,1.76.38,3.14.47,4.25C200.93,367.47,200.64,367.83,200.64,367.83Z"/><path class="cls-17" d="M221,384.71s7.85-6.88,8-4.58-1.87,6.31-1.87,6.31Z"/><path class="cls-13" d="M215.21,393.87l-10,12.51s-25.46-.07-26-.66-13.73-12-13.73-12l4-21.14.19-1,25.82-14.18,1.91-1.05,2.11-1.16,8.14-4.47a20.9,20.9,0,0,1,2.78,2.79c.35.42.73.88,1.11,1.39a35.48,35.48,0,0,1,5.18,9.94c.24.72.47,1.46.68,2.23C220.42,378.24,215.21,393.87,215.21,393.87Z"/><path class="cls-2" d="M225.1,447.08l0,0a73.87,73.87,0,0,1-9.71,10.27c-12.66,11-26.5,20-43.47,24.58-19.94,5.39-44.2,4.7-75.93-5.89-57.75-19.29-63.59-95.73-47.08-147.23s70.63-37.34,70.63-37.34,18.84,2.39,42.24,22.73c13.15,11.43,17.29,29.52,19.67,45.75s3,30.41,9,34.44c12.13,8.12,27.6-20.08,44.56-9.87C246,391.16,243.85,423.1,225.1,447.08Z"/><path class="cls-12" d="M171.9,482c-19.94,5.39-44.2,4.7-75.93-5.89-57.75-19.29-63.59-95.73-47.08-147.23s70.63-37.34,70.63-37.34-47.06,36.08-42.95,68,34.62,34.63,33.07,62.53,31.3,31.48,50.63,44.27C165.62,469.79,169.38,476.05,171.9,482Z"/><path class="cls-18" d="M225.1,447.08c6.81-13.95,13.72-45.77,9.15-51.41s-35.69,20.63-55.17,16.39S181.43,360,181.43,360c2.37,16.13,3,30.41,9,34.44,12.13,8.12,27.6-20.08,44.56-9.87C246,391.16,243.85,423.1,225.1,447.08Z"/><path class="cls-19" d="M150.42,221.08s5.53,9.48,2.18,19.43-12.22,10.41-12.66,16.32,5.87,7.38,7.69,8.9,1.22,5.19,1.22,5.19-4.74-4.86-7.58-1-2.39,6.95.89,8,4.63-.54,5.62,1.84c2,4.73-12.27,15.35-27.85,3.35-13.28-10.24-7.11-20.51-7.11-20.51s-7.38-16,5.37-27.46c11.81-10.62,17.65-4.83,24.38-5.56S150.42,221.08,150.42,221.08Z"/><path class="cls-17" d="M218.26,350.35a41.88,41.88,0,0,0-7.88,3.13,20.9,20.9,0,0,0-2.78-2.79l-8.14,4.47a22.86,22.86,0,0,0-1.19-3.82c2.8-1.53,7.65-3.86,9.9-3.2,3.16.95,2.86,2,9.45-.51C217.87,348.55,218.08,349.47,218.26,350.35Z"/></g></g></svg>