<svg xmlns="http://www.w3.org/2000/svg" viewBox="0 0 41.6 53.84"><defs><style>.cls-1{fill:#39ae4a;}</style></defs><title>logo</title><g id="Layer_2" data-name="Layer 2"><g id="Object"><path class="cls-1" d="M10.18,51.6h4.49l-1.05-2.27h0a1,1,0,0,1-.06-.76l3-10.91a1.11,1.11,0,1,1,2.15.58L15.82,48.76l1.31,2.84h4.61L20.6,49.44a1.09,1.09,0,0,1-.15-.69A103.59,103.59,0,0,1,23.31,33a1.12,1.12,0,0,1,2.15.63,99.07,99.07,0,0,0-2.75,15l1.55,3H28.2l-1.09-2.25h0a1.13,1.13,0,0,1-.11-.48s-.11-11.09,2.53-16c1.72-3.22.66-6-.09-8a14.91,14.91,0,0,1-.59-1.8,4.17,4.17,0,0,1-.09-.72v0a4.23,4.23,0,0,1,1.14-3,5,5,0,0,1,2.53-1.49,3.82,3.82,0,0,1,.7-.09h0a3.44,3.44,0,0,0,2.19-1,2.66,2.66,0,0,0,.83-1.9v-.06c0-.19-.1-.21-.39-.26A12.3,12.3,0,0,1,33.85,14c-1.84-.61-2.06-1.14-2.51-2.25A9,9,0,0,0,29.91,9.3a2.9,2.9,0,0,0-.34-.36,2.93,2.93,0,0,0-.36-.28A1.13,1.13,0,0,1,28.72,8a1.06,1.06,0,0,1-.1-.56,8.12,8.12,0,0,0-1.17-4.79,4,4,0,0,0-1.28,1.64,7.35,7.35,0,0,0-.46,3.26A1.12,1.12,0,0,1,23.54,8,7.24,7.24,0,0,0,18.88,4.1,9.94,9.94,0,0,0,19,6.8a6.69,6.69,0,0,0,2,3.83A1.13,1.13,0,0,1,21.36,12c-.86,1.9.45,3.59,1.67,5.17s2.19,2.82,2.13,4.53c-.09,2.76-2.85,3.78-5.82,4.87a19,19,0,0,0-4.11,1.86c-2.25,1.57-.93,4.42-.68,4.9.16.26,2,3.37-2.79,5.23L8.89,48.77ZM1.12,53.84a1.12,1.12,0,0,1,0-2.24h6.6l-1-2.21a1.13,1.13,0,0,1-.09-.83L9.74,37.44a1.15,1.15,0,0,1,.75-.82c2.94-1,2.18-2.07,2.18-2.07a1.14,1.14,0,0,1-.1-.19,8.34,8.34,0,0,1-.82-2.72c-1,.24-2.2,0-2.92-1.75A1.12,1.12,0,0,1,10.91,29c.2.51.74.28,1.07.07a5,5,0,0,1,2-2.52,20.37,20.37,0,0,1,4.6-2.14c2.25-.82,4.33-1.58,4.37-2.83,0-.91-.8-2-1.67-3.1-1.49-1.92-3.08-4-2.22-6.71a9.4,9.4,0,0,1-2.21-4.64c-.59-3.41.28-4.94.28-4.95a1.12,1.12,0,0,1,1.16-.57,11.22,11.22,0,0,1,5.48,2.76,7.52,7.52,0,0,1,.36-1A6.22,6.22,0,0,1,27.29.11a1.12,1.12,0,0,1,1.35.3h0a11,11,0,0,1,2.25,6.72l.19.17a5,5,0,0,1,.58.62,10.73,10.73,0,0,1,1.74,3c.2.47.29.7,1.15,1a11.35,11.35,0,0,0,1.62.4c1.68.31,2.29.42,2.22,2.52a4.81,4.81,0,0,1-1.48,3.48,5.78,5.78,0,0,1-3.7,1.66h0l-.3,0a2.58,2.58,0,0,0-1.34.8,2,2,0,0,0-.56,1.4h0a1.47,1.47,0,0,0,0,.33,11.3,11.3,0,0,0,.5,1.49c.9,2.4,2.16,5.77,0,9.88S29.24,47,29.23,48.6l1.45,3h9.79a1.12,1.12,0,1,1,0,2.24Z"/></g></g></svg>