<?xml version="1.0" encoding="utf-8"?>
<!-- Generator: Adobe Illustrator 23.0.3, SVG Export Plug-In . SVG Version: 6.00 Build 0)  -->
<svg version="1.1" id="Capa_1" xmlns="http://www.w3.org/2000/svg" xmlns:xlink="http://www.w3.org/1999/xlink" x="0px" y="0px"
	 viewBox="0 0 512 512" style="enable-background:new 0 0 512 512;" xml:space="preserve">
<style type="text/css">
	.st0{fill:#B2B2B2;stroke:#B2B2B2;stroke-width:12;stroke-miterlimit:10;}
</style>
<g>
	<g>
		<path class="st0" d="M446.2,424.9l-34.8-58c-16-26.7-24.5-57.4-24.5-88.6v-50.8c0-78.1-63.6-141.7-141.7-141.7
			s-141.7,63.6-141.7,141.7v50.8c0,31.2-8.5,61.8-24.5,88.6l-34.8,58c-1.9,3.1-1.9,7-0.1,10.2c1.8,3.2,5.2,5.1,8.8,5.1h384.7
			c3.6,0,7-2,8.8-5.1C448.2,431.9,448.1,428,446.2,424.9z M70.7,420l25.6-42.6c17.9-29.9,27.4-64.1,27.4-99v-50.8
			c0-67,54.5-121.5,121.5-121.5s121.5,54.5,121.5,121.5v50.8c0,34.9,9.5,69.1,27.4,99l25.6,42.6L70.7,420L70.7,420z"/>
	</g>
</g>
<g>
	<g>
		<path class="st0" d="M245.2,15c-22.3,0-40.5,18.2-40.5,40.5V96c0,5.6,4.5,10.1,10.1,10.1c5.6,0,10.1-4.5,10.1-10.1V55.5
			c0-11.2,9.1-20.2,20.2-20.2s20.2,9.1,20.2,20.2V96c0,5.6,4.5,10.1,10.1,10.1c5.6,0,10.1-4.5,10.1-10.1V55.5
			C285.7,33.2,267.5,15,245.2,15z"/>
	</g>
</g>
<g>
	<g>
		<path class="st0" d="M289,425c-2.9-4.8-9-6.4-13.9-3.6c-4.8,2.8-6.5,9.1-3.6,13.9c2.6,4.5,4.1,9.8,4.1,15.1
			c0,16.7-13.6,30.4-30.4,30.4s-30.4-13.6-30.4-30.4c0-5.3,1.4-10.7,4.1-15.1c2.8-4.8,1.2-11-3.6-13.9c-4.9-2.8-11-1.2-13.9,3.6
			c-4.5,7.7-6.8,16.4-6.8,25.4c0,27.9,22.7,50.6,50.6,50.6s50.6-22.7,50.7-50.6C295.8,441.4,293.5,432.7,289,425z"/>
	</g>
</g>
</svg>
