<?xml version="1.0" encoding="utf-8"?>
<!-- Generator: Adobe Illustrator 23.0.3, SVG Export Plug-In . SVG Version: 6.00 Build 0)  -->
<svg version="1.1" id="Capa_1" xmlns="http://www.w3.org/2000/svg" xmlns:xlink="http://www.w3.org/1999/xlink" x="0px" y="0px"
	 viewBox="0 0 53 53" style="enable-background:new 0 0 53 53;" xml:space="preserve">
<style type="text/css">
	.st0{fill:#B2B2B2;stroke:#B2B2B2;stroke-width:2;stroke-miterlimit:10;}
</style>
<path class="st0" d="M51.7,51.4L37.8,36.9c3.6-3.6,5.8-8.5,5.8-13.9c0-10.9-8.8-19.7-19.7-19.7S4.1,12.1,4.1,23S13,42.7,23.8,42.7
	c4.8,0,9.2-1.7,12.6-4.5l14,14.5c0.2,0.2,0.4,0.3,0.7,0.3c0.2,0,0.5-0.1,0.7-0.3C52.1,52.3,52.1,51.8,51.7,51.4z M23.8,40.8
	C14,40.8,6,32.8,6,23S14,5.1,23.8,5.1s17.8,8,17.8,17.8S33.7,40.8,23.8,40.8z"/>
</svg>
